PathFileType	4	(X/Y/Z)	SUBJ59_1_walk_RCNL2025.trc
DataRate	CameraRate	NumFrames	NumMarkers	Units	OrigDataRate	OrigDataStartFrame	OrigNumFrames
100	100	14	25	mm	100	259	345
Frame#	Time	R_Shoulder			L_Shoulder			C7			J_Notch			R_Elbow			L_Elbow			R_Wrist			L_Wrist			R_Asis			L_Asis			Sacral			Thoracic			Sternum			R_Thigh_Lateral			R_Knee_Lateral			R_Shank_Lateral			R_Ankle_Lateral			R_Heel			R_Toe			L_Thigh_Lateral			L_Knee_Lateral			L_Shank_Lateral			L_Ankle_Lateral			L_Heel			L_Toe		
		X1	Y1	Z1	X2	Y2	Z2	X3	Y3	Z3	X4	Y4	Z4	X5	Y5	Z5	X6	Y6	Z6	X7	Y7	Z7	X8	Y8	Z8	X9	Y9	Z9	X10	Y10	Z10	X11	Y11	Z11	X12	Y12	Z12	X13	Y13	Z13	X14	Y14	Z14	X15	Y15	Z15	X16	Y16	Z16	X17	Y17	Z17	X18	Y18	Z18	X19	Y19	Z19	X20	Y20	Z20	X21	Y21	Z21	X22	Y22	Z22	X23	Y23	Z23	X24	Y24	Z24	X25	Y25	Z25
259	2.58000000	429.738892	1414.793701	490.871582	455.297272	1473.204224	95.065300	349.727386	1532.427490	290.125427	511.350525	1430.608643	289.774689	330.529938	1102.211426	552.594666	493.628296	1153.196167	-41.694386	333.488815	821.875763	536.583862	641.520782	944.654327	30.293440	521.420837	971.106079	376.504547	493.483490	968.222534	151.170303	291.170898	997.465576	288.667664	282.455597	1317.717407	260.732666	565.357056	1240.172363	267.599213	523.949524	582.699158	464.192688	545.118042	493.949371	403.590393	586.253174	297.945251	471.615112	646.018433	62.844341	354.742401	612.053467	51.287819	306.014221	809.016357	66.277306	327.984589	313.279510	598.685974	89.204277	289.507904	494.173187	152.109344	193.913437	315.472900	99.312523	96.680260	107.958473	191.396088	49.882687	100.869217	245.896332	243.859436	38.991806	235.673294
260	2.59000000	441.640167	1415.244873	492.254700	465.799408	1475.036499	96.374252	361.019348	1533.571289	292.333160	522.737549	1432.024536	291.130951	343.276459	1102.425781	553.565308	501.009796	1154.927979	-41.294376	346.442856	822.059814	537.672821	646.594727	944.577362	30.197114	533.669556	972.475952	376.704193	505.208771	968.808411	151.499939	303.145966	998.638733	289.264648	294.129272	1318.752441	262.277222	577.298035	1241.854126	268.231293	534.213989	584.501648	464.822144	553.391296	494.777222	404.489380	594.505127	298.832611	472.465332	648.188477	62.672775	355.188049	613.225220	52.137047	306.844696	811.519531	61.978436	327.555084	325.249603	599.234253	88.703011	301.989777	494.477692	150.816727	202.127289	318.161713	98.344841	99.975601	112.912674	189.964203	53.480244	107.556625	244.650116	244.300095	38.855583	235.581863
261	2.60000000	453.645264	1416.133911	493.573608	476.275482	1477.296143	97.614311	372.319244	1535.072388	294.515656	534.111084	1433.854736	292.425751	356.329224	1103.069580	554.559326	508.213867	1157.006226	-40.802872	359.808609	822.700989	538.879974	651.074097	944.485382	29.904944	545.778687	974.316895	377.058197	517.027832	969.790894	151.970261	315.108368	1000.260437	289.782410	305.823273	1320.081787	263.771667	589.204895	1243.898682	268.862335	543.739807	586.492371	465.728516	561.418152	495.965332	405.556000	602.630066	300.009064	473.631500	649.825623	62.671715	355.716797	614.094360	52.952827	307.705536	813.400696	58.572735	327.232758	338.195526	599.848633	88.023018	315.643677	494.838379	149.186630	211.330688	321.221588	97.078949	104.114883	118.464180	188.233810	58.099960	115.052147	243.180252	244.742294	38.647915	235.562927
262	2.61000000	465.734558	1417.445435	494.823883	486.746216	1479.937866	98.795288	383.587433	1536.862915	296.640472	545.446838	1436.035767	293.644928	369.668030	1104.127319	555.578186	515.250549	1159.398315	-40.233948	373.595184	823.794952	540.215363	654.987122	944.389282	29.421072	557.716553	976.583130	377.589813	528.910034	971.135925	152.593430	327.038452	1002.291748	290.207550	317.504883	1321.635620	265.203735	601.030945	1246.230591	269.485962	552.698120	588.611389	466.809814	569.208313	497.409363	406.691010	610.189636	301.227875	474.946320	651.016785	62.783215	356.230774	614.703979	53.666855	308.513916	814.728088	56.019997	326.878113	352.172150	600.476379	87.098572	330.530273	495.210815	147.180786	221.634018	324.606812	95.455742	109.275330	124.563049	186.162567	63.927040	123.342529	241.431976	245.187683	38.364185	235.619110
263	2.62000000	477.885498	1419.134888	496.004211	497.225555	1482.886963	99.933632	394.790802	1538.858643	298.685638	556.719360	1438.480347	294.779785	383.263031	1105.556274	556.633179	522.127869	1162.048950	-39.611820	387.805191	825.303192	541.683258	658.374786	944.291473	28.751450	569.465149	979.193787	378.313080	540.818054	972.779907	153.378662	338.913086	1004.653198	290.542480	329.138885	1323.328735	266.574066	612.736145	1248.758423	270.093353	561.269104	590.788635	467.936676	576.714478	498.982727	407.816376	616.820129	302.319153	476.267700	651.863281	62.960083	356.660309	615.101135	54.247105	309.215729	815.604126	54.182388	326.434662	367.210114	601.051453	85.873573	346.667206	495.539398	144.788910	233.136078	328.228180	93.439751	115.630493	131.118744	183.735062	71.122086	132.362259	239.358795	245.661804	38.016659	235.729904
264	2.63000000	490.073700	1421.130493	497.114716	507.716522	1486.043091	101.048103	405.905182	1540.963867	300.640167	567.905334	1441.081909	295.826233	397.077087	1107.287842	557.744507	528.850098	1164.882202	-38.968929	402.429352	827.153534	543.276459	661.292175	944.185608	27.902099	581.017273	982.038086	379.226410	552.709595	974.636108	154.327774	350.704102	1007.230774	290.807709	340.691010	1325.068604	267.894806	624.289978	1251.379395	270.674774	569.597046	592.942200	468.987335	583.859802	500.557861	408.884003	622.415710	303.209320	477.473328	652.467834	63.169533	356.966553	615.340820	54.692318	309.780762	816.151184	52.879936	325.913086	383.305359	601.506836	84.314789	364.018860	495.768585	142.038116	245.912720	331.960907	91.027901	123.332207	138.006073	180.972046	79.798378	141.992386	236.932007	246.227631	37.644447	235.845795
265	2.64000000	502.274536	1423.337646	498.157166	518.208191	1489.286133	102.156708	416.913391	1543.075439	302.500519	578.986938	1443.722046	296.782745	411.066925	1109.230591	558.939270	535.417480	1167.803345	-38.341927	417.451538	829.244568	544.984039	663.806732	944.054199	26.879773	592.369873	984.983826	380.308594	564.541260	976.602478	155.432053	362.379761	1009.887268	291.036469	352.131409	1326.767822	269.185394	635.673523	1253.986450	271.221222	577.771790	594.983093	469.874725	590.570862	502.026398	409.871490	627.095520	303.883118	478.464020	652.923950	63.392365	357.135193	615.481384	55.020943	310.195404	816.493286	51.938087	325.352051	400.412506	601.786255	82.423920	382.490601	495.853241	138.999054	260.009369	335.657990	88.254539	132.490402	145.077652	177.931442	90.002380	152.065063	234.148407	247.009613	37.325935	235.882019
266	2.65000000	514.464783	1425.647217	499.134186	528.676331	1492.485840	103.274117	427.802490	1545.093628	304.264832	589.953369	1446.281372	297.650146	425.183258	1111.277954	560.245544	541.827515	1170.705566	-37.766781	432.856552	831.455231	546.800598	665.992554	943.865997	25.694207	603.521057	987.889282	381.521027	576.271423	978.573364	156.670593	373.906799	1012.478699	291.266846	363.436615	1328.356445	270.467346	646.878845	1256.476440	271.726562	585.820190	596.824768	470.557983	596.802856	503.311523	410.771484	631.049744	304.341309	479.187561	653.301086	63.618961	357.163055	615.574646	55.257782	310.456970	816.735474	51.214447	324.785919	418.440399	601.854431	80.245804	401.932343	495.767181	135.781326	275.437561	339.165222	85.190109	143.157089	152.188339	174.698669	101.702423	162.373169	231.038452	248.226715	37.189270	235.714172
267	2.66000000	526.623291	1427.944702	500.047424	539.088379	1495.512329	104.408379	438.563782	1546.933838	305.929504	600.801331	1448.652588	298.432495	439.369812	1113.319336	561.684326	548.079590	1173.479980	-37.275578	448.629242	833.660034	548.722656	667.923126	943.577942	24.358638	614.471680	990.618286	382.813690	587.862915	980.452332	158.010025	385.252838	1014.872925	291.536011	374.589935	1329.790039	271.759277	657.907227	1258.761108	272.189453	593.706787	598.396423	471.041473	602.554443	504.371429	411.583282	634.436157	304.591827	479.648651	653.636902	63.845623	357.053619	615.657471	55.426140	310.572723	816.951477	50.609051	324.233521	437.250336	601.706482	77.868484	422.154602	495.511993	132.516510	292.172394	342.338409	81.932388	155.317841	159.226456	171.371765	114.790512	172.684708	227.674454	250.221939	37.412567	235.179901
268	2.67000000	538.730835	1430.121826	500.895721	549.410645	1498.247192	105.557159	449.195282	1548.539185	307.489502	611.533997	1450.754028	299.137787	453.564758	1115.251343	563.262878	554.178650	1176.026855	-36.893501	464.748077	835.746399	550.737518	669.666290	943.142273	22.887168	625.228210	993.055176	384.133667	599.285645	982.164490	159.406494	396.388306	1016.965393	291.874817	385.580414	1331.054443	273.071777	668.765930	1260.774658	272.614044	601.350952	599.655579	471.369476	607.871399	505.198181	412.311279	637.375549	304.657318	479.891724	653.942200	64.070465	356.822693	615.748718	55.545494	310.561462	817.180908	50.063499	323.701691	456.659515	601.375793	75.411194	442.956757	495.124207	129.336014	310.150360	345.065613	78.591232	168.889130	166.134018	168.049255	129.100403	182.759949	224.172577	253.469238	38.203705	234.087296
269	2.68000000	550.768982	1432.087036	501.674835	559.614807	1500.595337	106.703476	459.704834	1549.887573	308.939514	622.159424	1452.537476	299.777100	467.710510	1116.986084	564.975891	560.136414	1178.262085	-36.633446	481.180603	837.627350	552.815460	671.282379	942.514404	21.290892	635.801453	995.114319	385.434753	610.517639	983.664551	160.810516	407.290741	1018.687256	292.300903	396.402344	1332.163330	274.404968	679.465088	1262.478027	273.010529	608.658325	600.596375	471.617126	612.839172	505.812897	412.965027	639.978638	304.572937	479.977661	654.213074	64.288101	356.500244	615.851196	55.631290	310.452301	817.432861	49.552864	323.192505	476.452057	600.936157	73.004730	464.156464	494.676270	126.351242	329.270416	347.292969	75.270714	183.722946	172.903946	164.821167	144.447998	192.367737	220.684753	258.537628	39.751263	232.232376
270	2.69000000	562.718384	1433.774292	502.379272	569.682068	1502.495605	107.813568	470.111786	1550.993652	310.275726	632.687988	1453.990601	300.362366	481.768585	1118.460815	566.813599	565.971130	1180.121826	-36.491859	497.888565	839.249695	554.917297	672.823151	941.657501	19.575729	646.203003	996.744995	386.685608	621.544434	984.938599	162.174606	417.949890	1020.007507	292.814880	407.056488	1333.151001	275.749573	690.016418	1263.861206	273.394623	615.551025	601.250610	471.872620	617.566528	506.257782	413.557800	642.349976	304.380981	479.972198	654.442444	64.488159	356.124969	615.958130	55.696175	310.280182	817.694946	49.072632	322.707275	496.397858	600.494690	70.770821	485.608765	494.270020	123.638924	349.400208	349.042206	72.056755	199.633606	179.558456	161.758926	160.685089	201.301788	217.381668	265.999512	42.155502	229.434265
271	2.70000000	574.557495	1435.147949	503.004761	579.601013	1503.923950	108.841629	480.445953	1551.901733	311.497528	643.130188	1455.134644	300.903687	495.726257	1119.643311	568.765198	571.709167	1181.566772	-36.449387	514.840393	840.596344	557.012329	674.330505	940.545471	17.742760	656.443604	997.933411	387.873138	632.360291	986.002502	163.460602	428.369171	1020.931580	293.402191	417.550903	1334.061035	277.091309	700.432068	1264.943481	273.785339	621.989441	601.680786	472.213531	622.164124	506.585449	414.103027	644.578613	304.131500	479.941956	654.626770	64.660583	355.737000	616.061096	55.751888	310.079926	817.946716	48.625546	322.247528	516.278931	600.175110	68.802818	507.211578	494.022980	121.233849	370.384521	350.408020	69.015739	216.449783	186.110092	158.910614	177.728867	209.396378	214.426804	276.303589	45.373932	225.591476
272	2.71000000	586.262634	1436.204956	503.549438	589.362610	1504.891357	109.738289	490.742645	1552.673340	312.609314	653.495178	1456.016602	301.406952	509.590057	1120.532959	570.814453	577.384827	1182.584106	-36.473400	532.014587	841.682281	559.083984	675.833710	939.164612	15.790030	666.532471	998.701660	389.001221	642.972351	986.898376	164.643707	438.563080	1021.498840	294.038544	427.899261	1334.936279	278.414337	710.725220	1265.768066	274.201172	627.985535	601.964478	472.685852	626.724426	506.848175	414.610107	646.745239	303.880005	479.946930	654.769470	64.801041	355.370941	616.154846	55.809772	309.881683	818.170288	48.214214	321.816010	535.918823	600.096924	67.151299	528.900513	494.049469	119.131302	392.048431	351.542572	66.204895	234.063263	192.513641	156.307983	195.549622	216.527039	211.943787	289.666595	49.216431	220.737350
